<mxfile host="app.diagrams.net" agent="Mozilla/5.0 (Windows NT 10.0; Win64; x64) AppleWebKit/537.36 (KHTML, like Gecko) Chrome/129.0.0.0 Safari/537.36" version="24.8.6">
  <diagram name="第 1 页" id="IZEYNK8IAkuICMWbv5_P">
    <mxGraphModel dx="1221" dy="626" grid="1" gridSize="10" guides="1" tooltips="1" connect="1" arrows="1" fold="1" page="1" pageScale="1" pageWidth="827" pageHeight="1169" math="0" shadow="0">
      <root>
        <mxCell id="0" />
        <mxCell id="1" parent="0" />
        <mxCell id="9B94T_sQ_y04vvRiNsfj-39" value="" style="rounded=0;whiteSpace=wrap;html=1;hachureGap=4;fontFamily=Architects Daughter;fontSource=https%3A%2F%2Ffonts.googleapis.com%2Fcss%3Ffamily%3DArchitects%2BDaughter;strokeWidth=2;" vertex="1" parent="1">
          <mxGeometry x="660" y="151" width="520" height="289" as="geometry" />
        </mxCell>
        <mxCell id="9B94T_sQ_y04vvRiNsfj-41" value="" style="rounded=0;whiteSpace=wrap;html=1;hachureGap=4;fontFamily=Architects Daughter;fontSource=https%3A%2F%2Ffonts.googleapis.com%2Fcss%3Ffamily%3DArchitects%2BDaughter;" vertex="1" parent="1">
          <mxGeometry x="930" y="160" width="239" height="220" as="geometry" />
        </mxCell>
        <mxCell id="9B94T_sQ_y04vvRiNsfj-40" value="" style="rounded=0;whiteSpace=wrap;html=1;hachureGap=4;fontFamily=Architects Daughter;fontSource=https%3A%2F%2Ffonts.googleapis.com%2Fcss%3Ffamily%3DArchitects%2BDaughter;" vertex="1" parent="1">
          <mxGeometry x="669.5" y="160" width="240" height="220" as="geometry" />
        </mxCell>
        <mxCell id="9B94T_sQ_y04vvRiNsfj-30" value="" style="rounded=0;whiteSpace=wrap;html=1;dashed=1;strokeWidth=1;glass=0;" vertex="1" parent="1">
          <mxGeometry x="956" y="180" width="186" height="50" as="geometry" />
        </mxCell>
        <mxCell id="9B94T_sQ_y04vvRiNsfj-14" value="" style="rounded=0;whiteSpace=wrap;html=1;hachureGap=4;fontFamily=Architects Daughter;fontSource=https%3A%2F%2Ffonts.googleapis.com%2Fcss%3Ffamily%3DArchitects%2BDaughter;strokeWidth=2;" vertex="1" parent="1">
          <mxGeometry x="170" y="150" width="430" height="290" as="geometry" />
        </mxCell>
        <mxCell id="9B94T_sQ_y04vvRiNsfj-1" value="" style="rounded=0;whiteSpace=wrap;html=1;dashed=1;strokeWidth=1;glass=0;" vertex="1" parent="1">
          <mxGeometry x="190" y="180" width="390" height="50" as="geometry" />
        </mxCell>
        <mxCell id="9B94T_sQ_y04vvRiNsfj-4" style="edgeStyle=orthogonalEdgeStyle;rounded=0;hachureGap=4;orthogonalLoop=1;jettySize=auto;html=1;exitX=1;exitY=0.5;exitDx=0;exitDy=0;entryX=0;entryY=0.5;entryDx=0;entryDy=0;fontFamily=Architects Daughter;fontSource=https%3A%2F%2Ffonts.googleapis.com%2Fcss%3Ffamily%3DArchitects%2BDaughter;strokeWidth=2;" edge="1" parent="1" source="9B94T_sQ_y04vvRiNsfj-2" target="9B94T_sQ_y04vvRiNsfj-3">
          <mxGeometry relative="1" as="geometry" />
        </mxCell>
        <mxCell id="9B94T_sQ_y04vvRiNsfj-2" value="&lt;b&gt;Request 1&lt;/b&gt;" style="rounded=0;whiteSpace=wrap;html=1;strokeWidth=2;fillColor=#0071c5;" vertex="1" parent="1">
          <mxGeometry x="200" y="190" width="170" height="30" as="geometry" />
        </mxCell>
        <mxCell id="9B94T_sQ_y04vvRiNsfj-3" value="&lt;b&gt;Processor 1&lt;/b&gt;" style="rounded=0;whiteSpace=wrap;html=1;strokeWidth=2;fillColor=#76B900;" vertex="1" parent="1">
          <mxGeometry x="410" y="190" width="160" height="30" as="geometry" />
        </mxCell>
        <mxCell id="9B94T_sQ_y04vvRiNsfj-6" value="" style="rounded=0;whiteSpace=wrap;html=1;dashed=1;strokeWidth=1;glass=0;" vertex="1" parent="1">
          <mxGeometry x="190" y="240" width="390" height="50" as="geometry" />
        </mxCell>
        <mxCell id="9B94T_sQ_y04vvRiNsfj-7" style="edgeStyle=orthogonalEdgeStyle;rounded=0;hachureGap=4;orthogonalLoop=1;jettySize=auto;html=1;exitX=1;exitY=0.5;exitDx=0;exitDy=0;entryX=0;entryY=0.5;entryDx=0;entryDy=0;fontFamily=Architects Daughter;fontSource=https%3A%2F%2Ffonts.googleapis.com%2Fcss%3Ffamily%3DArchitects%2BDaughter;strokeWidth=2;" edge="1" parent="1" source="9B94T_sQ_y04vvRiNsfj-8" target="9B94T_sQ_y04vvRiNsfj-9">
          <mxGeometry relative="1" as="geometry" />
        </mxCell>
        <mxCell id="9B94T_sQ_y04vvRiNsfj-8" value="&lt;b&gt;Request 2&lt;/b&gt;" style="rounded=0;whiteSpace=wrap;html=1;strokeWidth=2;fillColor=#0071C5;" vertex="1" parent="1">
          <mxGeometry x="200" y="250" width="170" height="30" as="geometry" />
        </mxCell>
        <mxCell id="9B94T_sQ_y04vvRiNsfj-9" value="&lt;b&gt;Processor 2&lt;/b&gt;" style="rounded=0;whiteSpace=wrap;html=1;strokeWidth=2;fillColor=#76B900;" vertex="1" parent="1">
          <mxGeometry x="410" y="250" width="160" height="30" as="geometry" />
        </mxCell>
        <mxCell id="9B94T_sQ_y04vvRiNsfj-10" value="" style="rounded=0;whiteSpace=wrap;html=1;dashed=1;strokeWidth=1;glass=0;" vertex="1" parent="1">
          <mxGeometry x="190" y="320" width="390" height="50" as="geometry" />
        </mxCell>
        <mxCell id="9B94T_sQ_y04vvRiNsfj-11" style="edgeStyle=orthogonalEdgeStyle;rounded=0;hachureGap=4;orthogonalLoop=1;jettySize=auto;html=1;exitX=1;exitY=0.5;exitDx=0;exitDy=0;entryX=0;entryY=0.5;entryDx=0;entryDy=0;fontFamily=Architects Daughter;fontSource=https%3A%2F%2Ffonts.googleapis.com%2Fcss%3Ffamily%3DArchitects%2BDaughter;strokeWidth=2;" edge="1" parent="1" source="9B94T_sQ_y04vvRiNsfj-12" target="9B94T_sQ_y04vvRiNsfj-13">
          <mxGeometry relative="1" as="geometry" />
        </mxCell>
        <mxCell id="9B94T_sQ_y04vvRiNsfj-12" value="&lt;b&gt;Request n&lt;/b&gt;" style="rounded=0;whiteSpace=wrap;html=1;strokeWidth=2;fillColor=#0071C5;" vertex="1" parent="1">
          <mxGeometry x="200" y="330" width="170" height="30" as="geometry" />
        </mxCell>
        <mxCell id="9B94T_sQ_y04vvRiNsfj-13" value="&lt;b&gt;Processor n&lt;/b&gt;" style="rounded=0;whiteSpace=wrap;html=1;strokeWidth=2;fillColor=#76B900;" vertex="1" parent="1">
          <mxGeometry x="410" y="330" width="160" height="30" as="geometry" />
        </mxCell>
        <mxCell id="9B94T_sQ_y04vvRiNsfj-15" value="&lt;b&gt;&lt;font style=&quot;font-size: 27px;&quot;&gt;...&lt;/font&gt;&lt;/b&gt;" style="text;html=1;align=center;verticalAlign=middle;whiteSpace=wrap;rounded=0;fontFamily=Architects Daughter;fontSource=https%3A%2F%2Ffonts.googleapis.com%2Fcss%3Ffamily%3DArchitects%2BDaughter;" vertex="1" parent="1">
          <mxGeometry x="355" y="282" width="60" height="30" as="geometry" />
        </mxCell>
        <mxCell id="9B94T_sQ_y04vvRiNsfj-17" value="" style="rounded=0;whiteSpace=wrap;html=1;dashed=1;strokeWidth=1;glass=0;" vertex="1" parent="1">
          <mxGeometry x="692" y="180" width="195" height="50" as="geometry" />
        </mxCell>
        <mxCell id="9B94T_sQ_y04vvRiNsfj-19" value="&lt;b&gt;Request 1&lt;/b&gt;" style="rounded=0;whiteSpace=wrap;html=1;strokeWidth=2;fillColor=#0071c5;" vertex="1" parent="1">
          <mxGeometry x="705" y="190" width="170" height="30" as="geometry" />
        </mxCell>
        <mxCell id="9B94T_sQ_y04vvRiNsfj-20" value="&lt;b&gt;Processor 1&lt;/b&gt;" style="rounded=0;whiteSpace=wrap;html=1;strokeWidth=2;fillColor=#76B900;" vertex="1" parent="1">
          <mxGeometry x="970" y="190" width="160" height="30" as="geometry" />
        </mxCell>
        <mxCell id="9B94T_sQ_y04vvRiNsfj-21" value="" style="rounded=0;whiteSpace=wrap;html=1;dashed=1;strokeWidth=1;glass=0;" vertex="1" parent="1">
          <mxGeometry x="692" y="240" width="195" height="50" as="geometry" />
        </mxCell>
        <mxCell id="9B94T_sQ_y04vvRiNsfj-23" value="&lt;b&gt;Request 2&lt;/b&gt;" style="rounded=0;whiteSpace=wrap;html=1;strokeWidth=2;fillColor=#0071C5;" vertex="1" parent="1">
          <mxGeometry x="705" y="250" width="170" height="30" as="geometry" />
        </mxCell>
        <mxCell id="9B94T_sQ_y04vvRiNsfj-25" value="" style="rounded=0;whiteSpace=wrap;html=1;dashed=1;strokeWidth=1;glass=0;" vertex="1" parent="1">
          <mxGeometry x="693" y="320" width="195" height="50" as="geometry" />
        </mxCell>
        <mxCell id="9B94T_sQ_y04vvRiNsfj-27" value="&lt;b&gt;Request n&lt;/b&gt;" style="rounded=0;whiteSpace=wrap;html=1;strokeWidth=2;fillColor=#0071C5;" vertex="1" parent="1">
          <mxGeometry x="705" y="330" width="170" height="30" as="geometry" />
        </mxCell>
        <mxCell id="9B94T_sQ_y04vvRiNsfj-29" value="&lt;b&gt;&lt;font style=&quot;font-size: 27px;&quot;&gt;...&lt;/font&gt;&lt;/b&gt;" style="text;html=1;align=center;verticalAlign=middle;whiteSpace=wrap;rounded=0;fontFamily=Architects Daughter;fontSource=https%3A%2F%2Ffonts.googleapis.com%2Fcss%3Ffamily%3DArchitects%2BDaughter;" vertex="1" parent="1">
          <mxGeometry x="761" y="282" width="60" height="30" as="geometry" />
        </mxCell>
        <mxCell id="9B94T_sQ_y04vvRiNsfj-34" value="M Calc Threads&amp;nbsp;" style="text;html=1;align=center;verticalAlign=middle;whiteSpace=wrap;rounded=0;fontFamily=Architects Daughter;fontSource=https%3A%2F%2Ffonts.googleapis.com%2Fcss%3Ffamily%3DArchitects%2BDaughter;strokeWidth=4;fontStyle=1" vertex="1" parent="1">
          <mxGeometry x="180" y="150" width="120" height="30" as="geometry" />
        </mxCell>
        <mxCell id="9B94T_sQ_y04vvRiNsfj-35" value="" style="rounded=0;whiteSpace=wrap;html=1;dashed=1;strokeWidth=1;glass=0;" vertex="1" parent="1">
          <mxGeometry x="956" y="240" width="186" height="50" as="geometry" />
        </mxCell>
        <mxCell id="9B94T_sQ_y04vvRiNsfj-36" value="&lt;b&gt;Processor 2&lt;/b&gt;" style="rounded=0;whiteSpace=wrap;html=1;strokeWidth=2;fillColor=#76B900;" vertex="1" parent="1">
          <mxGeometry x="970" y="250" width="160" height="30" as="geometry" />
        </mxCell>
        <mxCell id="9B94T_sQ_y04vvRiNsfj-37" value="" style="rounded=0;whiteSpace=wrap;html=1;dashed=1;strokeWidth=1;glass=0;" vertex="1" parent="1">
          <mxGeometry x="957" y="320" width="186" height="50" as="geometry" />
        </mxCell>
        <mxCell id="9B94T_sQ_y04vvRiNsfj-38" value="&lt;b&gt;Processor m&lt;/b&gt;" style="rounded=0;whiteSpace=wrap;html=1;strokeWidth=2;fillColor=#76B900;" vertex="1" parent="1">
          <mxGeometry x="971" y="330" width="160" height="30" as="geometry" />
        </mxCell>
        <mxCell id="9B94T_sQ_y04vvRiNsfj-42" value="M Calc Threads&amp;nbsp;" style="text;html=1;align=center;verticalAlign=middle;whiteSpace=wrap;rounded=0;fontFamily=Architects Daughter;fontSource=https%3A%2F%2Ffonts.googleapis.com%2Fcss%3Ffamily%3DArchitects%2BDaughter;strokeWidth=4;fontStyle=1" vertex="1" parent="1">
          <mxGeometry x="663" y="160" width="120" height="20" as="geometry" />
        </mxCell>
        <mxCell id="9B94T_sQ_y04vvRiNsfj-43" value="N Heterogeneous Threads&amp;nbsp;" style="text;html=1;align=center;verticalAlign=middle;whiteSpace=wrap;rounded=0;fontFamily=Architects Daughter;fontSource=https%3A%2F%2Ffonts.googleapis.com%2Fcss%3Ffamily%3DArchitects%2BDaughter;strokeWidth=4;fontStyle=1" vertex="1" parent="1">
          <mxGeometry x="930" y="160" width="170" height="20" as="geometry" />
        </mxCell>
        <mxCell id="9B94T_sQ_y04vvRiNsfj-44" value="CPU" style="sketch=0;pointerEvents=1;shadow=0;dashed=0;html=1;strokeColor=none;fillColor=#434445;aspect=fixed;labelPosition=center;verticalLabelPosition=bottom;verticalAlign=top;align=center;outlineConnect=0;shape=mxgraph.vvd.cpu;hachureGap=4;jiggle=2;curveFitting=1;fontFamily=Architects Daughter;fontSource=https%3A%2F%2Ffonts.googleapis.com%2Fcss%3Ffamily%3DArchitects%2BDaughter;" vertex="1" parent="1">
          <mxGeometry x="70" y="70" width="50" height="50" as="geometry" />
        </mxCell>
      </root>
    </mxGraphModel>
  </diagram>
</mxfile>
